<!DOCTYPE svg PUBLIC "-//W3C//DTD SVG 1.1//EN" "http://www.w3.org/Graphics/SVG/1.1/DTD/svg11.dtd">
<!-- Uploaded to: SVG Repo, www.svgrepo.com, Transformed by: SVG Repo Mixer Tools -->
<svg width="256px" height="256px" viewBox="-3.6 -3.6 31.20 31.20" fill="none" xmlns="http://www.w3.org/2000/svg" stroke="#000000" stroke-width="0.00024000000000000003" transform="matrix(1, 0, 0, 1, 0, 0)">
<g id="SVGRepo_bgCarrier" stroke-width="0">
<rect x="-3.6" y="-3.6" width="31.20" height="31.20" rx="0" fill="#FCE029" strokewidth="0"/>
</g>
<g id="SVGRepo_tracerCarrier" stroke-linecap="round" stroke-linejoin="round"/>
<g id="SVGRepo_iconCarrier"> <path d="M12.08 15.54C11.0199 15.54 9.98359 15.2257 9.10215 14.6367C8.2207 14.0477 7.53369 13.2106 7.12801 12.2312C6.72232 11.2518 6.61618 10.1741 6.82299 9.13433C7.02981 8.09459 7.5403 7.13953 8.28991 6.38992C9.03952 5.64031 9.99458 5.12982 11.0343 4.923C12.0741 4.71618 13.1518 4.82233 14.1312 5.22802C15.1106 5.6337 15.9477 6.32071 16.5367 7.20215C17.1256 8.0836 17.44 9.1199 17.44 10.18C17.44 10.8839 17.3014 11.5809 17.032 12.2312C16.7626 12.8815 16.3678 13.4724 15.8701 13.9701C15.3724 14.4678 14.7815 14.8626 14.1312 15.132C13.4809 15.4014 12.7839 15.54 12.08 15.54ZM12.08 6.32001C11.3166 6.32001 10.5703 6.54639 9.9355 6.97054C9.30073 7.39468 8.80598 7.99753 8.51383 8.70285C8.22167 9.40817 8.14523 10.1843 8.29417 10.9331C8.44311 11.6818 8.81074 12.3696 9.35057 12.9094C9.8904 13.4493 10.5782 13.8169 11.327 13.9658C12.0757 14.1148 12.8518 14.0383 13.5572 13.7462C14.2625 13.454 14.8653 12.9593 15.2895 12.3245C15.7136 11.6897 15.94 10.9434 15.94 10.18C15.94 9.15627 15.5333 8.17447 14.8094 7.45058C14.0855 6.72669 13.1037 6.32001 12.08 6.32001Z" fill="#000000"/> <path d="M12 19.31C11.2959 19.3116 10.5984 19.1737 9.94792 18.9042C9.29741 18.6347 8.70673 18.2391 8.21002 17.74C8.07754 17.5978 8.00542 17.4098 8.00884 17.2155C8.01227 17.0212 8.09098 16.8358 8.2284 16.6984C8.36581 16.561 8.5512 16.4822 8.7455 16.4788C8.9398 16.4754 9.12785 16.5475 9.27002 16.68C10.0108 17.3717 10.9865 17.7564 12 17.7564C13.0135 17.7564 13.9893 17.3717 14.73 16.68C14.8722 16.5475 15.0602 16.4754 15.2545 16.4788C15.4488 16.4822 15.6342 16.561 15.7716 16.6984C15.9091 16.8358 15.9878 17.0212 15.9912 17.2155C15.9946 17.4098 15.9225 17.5978 15.79 17.74C15.2933 18.2391 14.7026 18.6347 14.0521 18.9042C13.4016 19.1737 12.7041 19.3116 12 19.31Z" fill="#000000"/> <path d="M12.08 12C13.0852 12 13.9 11.1851 13.9 10.18C13.9 9.17483 13.0852 8.35999 12.08 8.35999C11.0749 8.35999 10.26 9.17483 10.26 10.18C10.26 11.1851 11.0749 12 12.08 12Z" fill="#000000"/> <path d="M20 22.66C19.8011 22.66 19.6103 22.581 19.4697 22.4403C19.329 22.2997 19.25 22.1089 19.25 21.91V9.99999C19.1147 8.18832 18.2995 6.49476 16.9679 5.25891C15.6363 4.02306 13.8867 3.33628 12.07 3.33628C10.2533 3.33628 8.50372 4.02306 7.17212 5.25891C5.84052 6.49476 5.02533 8.18832 4.89001 9.99999V21.91C4.89001 22.1089 4.811 22.2997 4.67034 22.4403C4.52969 22.581 4.33893 22.66 4.14001 22.66C3.9411 22.66 3.75034 22.581 3.60968 22.4403C3.46903 22.2997 3.39001 22.1089 3.39001 21.91V9.99999C3.4665 7.74497 4.41608 5.60787 6.03835 4.03968C7.66063 2.4715 9.8287 1.59491 12.085 1.59491C14.3413 1.59491 16.5094 2.4715 18.1317 4.03968C19.754 5.60787 20.7035 7.74497 20.78 9.99999V21.91C20.7787 22.0107 20.7574 22.1101 20.7174 22.2024C20.6774 22.2948 20.6194 22.3783 20.5468 22.4481C20.4743 22.5179 20.3886 22.5725 20.2947 22.6089C20.2008 22.6453 20.1007 22.6627 20 22.66Z" fill="#000000"/> <path d="M20 22.66H4.14001C3.9411 22.66 3.75034 22.581 3.60968 22.4403C3.46903 22.2997 3.39001 22.1089 3.39001 21.91C3.39001 21.7111 3.46903 21.5203 3.60968 21.3797C3.75034 21.239 3.9411 21.16 4.14001 21.16H20C20.1989 21.16 20.3897 21.239 20.5303 21.3797C20.671 21.5203 20.75 21.7111 20.75 21.91C20.75 22.1089 20.671 22.2997 20.5303 22.4403C20.3897 22.581 20.1989 22.66 20 22.66Z" fill="#000000"/> </g>
</svg>