<svg width="1920" height="1080" viewBox="0 0 1920 1080" xmlns="http://www.w3.org/2000/svg"><rect width="1920" height="1080" fill="#fce029"/><path d="M 0,1080 C 0,1080 0,180 0,180 C 120.425641025641,204.83846153846153 240.851282051282,229.67692307692306 327,241 C 413.148717948718,252.32307692307694 465.02051282051286,250.13076923076926 581,222 C 696.9794871794871,193.86923076923074 877.0666666666666,139.79999999999998 999,121 C 1120.9333333333334,102.20000000000002 1184.7128205128204,118.66923076923078 1278,138 C 1371.2871794871796,157.33076923076922 1494.0820512820515,179.52307692307693 1606,187 C 1717.9179487179485,194.47692307692307 1818.9589743589743,187.23846153846154 1920,180 C 1920,180 1920,1080 1920,1080 Z" fill="#0a75bc" opacity="0.09999999999999999"/><path d="M 0,1080 C 0,1080 0,360 0,360 C 77.56666666666666,352.8051282051282 155.13333333333333,345.61025641025645 272,343 C 388.8666666666667,340.38974358974355 545.0333333333332,342.36410256410255 651,333 C 756.9666666666668,323.63589743589745 812.7333333333333,302.93333333333334 912,297 C 1011.2666666666667,291.06666666666666 1154.0333333333335,299.9025641025641 1288,302 C 1421.9666666666665,304.0974358974359 1547.1333333333332,299.45641025641027 1651,308 C 1754.8666666666668,316.54358974358973 1837.4333333333334,338.2717948717949 1920,360 C 1920,360 1920,1080 1920,1080 Z" fill="#0a75bc" opacity="0.19999999999999998"/><path d="M 0,1080 C 0,1080 0,540 0,540 C 104.57179487179488,502.12307692307695 209.14358974358976,464.24615384615385 305,480 C 400.85641025641024,495.75384615384615 487.99743589743593,565.1384615384616 601,570 C 714.0025641025641,574.8615384615384 852.8666666666666,515.2 964,524 C 1075.1333333333334,532.8 1158.5358974358974,610.0615384615385 1260,602 C 1361.4641025641026,593.9384615384615 1480.9897435897437,500.55384615384617 1594,476 C 1707.0102564102563,451.44615384615383 1813.5051282051281,495.7230769230769 1920,540 C 1920,540 1920,1080 1920,1080 Z" fill="#0a75bc" opacity="0.3"/><path d="M 0,1080 C 0,1080 0,720 0,720 C 90.0974358974359,734.4435897435897 180.1948717948718,748.8871794871794 287,743 C 393.8051282051282,737.1128205128206 517.3179487179488,710.8948717948718 640,704 C 762.6820512820512,697.1051282051282 884.5333333333333,709.5333333333334 990,734 C 1095.4666666666667,758.4666666666666 1184.548717948718,794.9717948717949 1278,779 C 1371.451282051282,763.0282051282051 1469.2717948717948,694.579487179487 1577,676 C 1684.7282051282052,657.420512820513 1802.3641025641027,688.7102564102565 1920,720 C 1920,720 1920,1080 1920,1080 Z" fill="#0a75bc" opacity="0.39999999999999997"/><path d="M 0,1080 C 0,1080 0,900 0,900 C 136.70000000000002,919.2384615384615 273.40000000000003,938.4769230769231 362,928 C 450.59999999999997,917.5230769230769 491.1,877.3307692307693 588,867 C 684.9,856.6692307692307 838.1999999999998,876.1999999999999 953,887 C 1067.8000000000002,897.8000000000001 1144.1000000000001,899.8692307692307 1260,886 C 1375.8999999999999,872.1307692307693 1531.4,842.323076923077 1648,842 C 1764.6,841.676923076923 1842.3,870.8384615384615 1920,900 C 1920,900 1920,1080 1920,1080 Z" fill="#0a75bc" opacity="0.49999999999999994"/></svg>